<svg width="1381" height="273" viewBox="0 0 1381 273" fill="none" xmlns="http://www.w3.org/2000/svg">
<path d="M40 42C40 40.8954 40.8954 40 42 40H1339C1340.1 40 1341 40.8954 1341 42V231C1341 232.105 1340.1 233 1339 233H42C40.8954 233 40 232.105 40 231V42Z" fill="#222222"/>
<path d="M42 41H1339V39H42V41ZM1340 42V231H1342V42H1340ZM1339 232H42V234H1339V232ZM41 231V42H39V231H41ZM42 232C41.4477 232 41 231.552 41 231H39C39 232.657 40.3431 234 42 234V232ZM1340 231C1340 231.552 1339.55 232 1339 232V234C1340.66 234 1342 232.657 1342 231H1340ZM1339 41C1339.55 41 1340 41.4477 1340 42H1342C1342 40.3432 1340.66 39 1339 39V41ZM42 39C40.3431 39 39 40.3431 39 42H41C41 41.4477 41.4477 41 42 41V39Z" fill="white" fill-opacity="0.56"/>
<path fill-rule="evenodd" clip-rule="evenodd" d="M495.583 74.2245L491.006 79.7171H483.563C483.178 79.7171 482.885 80.0633 482.948 80.4435L483.849 85.8516L479.145 91.4971C478.921 91.7655 478.961 92.1654 479.234 92.3837L483.849 96.0757V102.609C483.849 102.953 484.129 103.233 484.473 103.233H491.006L494.609 107.736C494.858 108.048 495.333 108.048 495.583 107.736L499.185 103.233H506.741C507.085 103.233 507.365 102.953 507.365 102.609V96.0757L511.98 92.3837C512.253 92.1654 512.293 91.7655 512.069 91.4971L507.365 85.8516V80.341C507.365 79.9964 507.085 79.7171 506.741 79.7171H500.208L496.582 74.2778C496.35 73.9308 495.85 73.9041 495.583 74.2245ZM499.185 85.8514L488.961 98.1203L489.76 98.786L499.984 86.517L499.185 85.8514ZM495.096 85.8515C495.096 86.9808 494.18 87.8963 493.051 87.8963C491.922 87.8963 491.006 86.9808 491.006 85.8515C491.006 84.7221 491.922 83.8066 493.051 83.8066C494.18 83.8066 495.096 84.7221 495.096 85.8515ZM499.185 100.165C500.315 100.165 501.23 99.2495 501.23 98.1202C501.23 96.9909 500.315 96.0754 499.185 96.0754C498.056 96.0754 497.14 96.9909 497.14 98.1202C497.14 99.2495 498.056 100.165 499.185 100.165Z" fill="white"/>
<path d="M437.917 78.25H418.083C416.08 78.25 415.078 78.25 414.456 78.8339C413.833 79.4179 413.833 80.3577 413.833 82.2374V83.2147C413.833 84.685 413.833 85.4201 414.201 86.0295C414.569 86.6389 415.241 87.0172 416.585 87.7736L420.711 90.0967C421.613 90.6042 422.064 90.858 422.387 91.1382C423.059 91.7218 423.472 92.4075 423.66 93.2485C423.75 93.6523 423.75 94.1249 423.75 95.07L423.75 98.8518C423.75 100.14 423.75 100.785 424.107 101.287C424.464 101.789 425.098 102.037 426.365 102.532C429.027 103.573 430.358 104.093 431.304 103.501C432.25 102.909 432.25 101.557 432.25 98.8518V95.07C432.25 94.1249 432.25 93.6523 432.34 93.2485C432.528 92.4075 432.941 91.7218 433.614 91.1382C433.936 90.858 434.387 90.6042 435.289 90.0967L439.416 87.7736C440.759 87.0172 441.431 86.6389 441.799 86.0295C442.167 85.4201 442.167 84.685 442.167 83.2147V82.2374C442.167 80.3577 442.167 79.4179 441.544 78.8339C440.922 78.25 439.92 78.25 437.917 78.25Z" stroke="#5F5F5F" stroke-width="1.5"/>
<line x1="417.653" y1="88.2606" x2="431.82" y2="78.3439" stroke="#5F5F5F" stroke-width="1.5"/>
<path d="M362.833 82.5H357.167C355.246 82.5 353.67 82.5 352.363 82.5771C350.034 82.7145 348.556 83.0967 347.493 84.1597C345.833 85.8195 345.833 88.4907 345.833 93.8333C345.833 99.1759 345.833 101.847 347.493 103.507C349.153 105.167 351.824 105.167 357.167 105.167H362.833C368.176 105.167 370.847 105.167 372.507 103.507C374.167 101.847 374.167 99.1759 374.167 93.8333C374.167 88.4907 374.167 85.8195 372.507 84.1597C371.444 83.0967 369.966 82.7145 367.637 82.5771C366.33 82.5 364.754 82.5 362.833 82.5Z" stroke="white" stroke-width="1.5"/>
<path d="M352.363 82.5771C353.53 82.5476 354.559 81.7278 354.956 80.6305C354.968 80.5967 354.981 80.5591 355.006 80.484L355.042 80.375C355.102 80.1957 355.132 80.106 355.164 80.0265C355.572 79.0109 356.529 78.3214 357.621 78.2552C357.707 78.25 357.801 78.25 357.99 78.25H362.01C362.199 78.25 362.294 78.25 362.379 78.2552C363.472 78.3214 364.429 79.0109 364.837 80.0265C364.869 80.106 364.899 80.1957 364.959 80.375L364.995 80.484C365.02 80.559 365.033 80.5967 365.045 80.6305C365.442 81.7278 366.471 82.5476 367.637 82.5771" stroke="white" stroke-width="1.5"/>
<path d="M373.688 86.3529C369.424 89.1245 367.292 90.5102 365.044 91.2085C361.759 92.2292 358.241 92.2292 354.956 91.2085C352.709 90.5102 350.577 89.1245 346.313 86.3529" stroke="white" stroke-width="1.5" stroke-linecap="round"/>
<path d="M354.333 89.5834V92.4167" stroke="white" stroke-width="1.5" stroke-linecap="round"/>
<path d="M365.667 89.5834V92.4167" stroke="white" stroke-width="1.5" stroke-linecap="round"/>
<circle cx="223.292" cy="90.2917" r="13.4583" stroke="white" stroke-width="1.25"/>
<path d="M233.208 100.208L238.167 105.167" stroke="white" stroke-width="1.25" stroke-linecap="round"/>
<path d="M303.688 89.3202C303.018 89.0261 302.294 88.8746 301.562 88.8752H282.438C281.706 88.8745 280.982 89.0258 280.312 89.3195C279.366 89.7336 278.56 90.4145 277.994 91.279C277.428 92.1436 277.126 93.1544 277.125 94.1877V101.625C277.125 101.907 277.237 102.177 277.436 102.377C277.635 102.576 277.906 102.688 278.188 102.688C278.469 102.688 278.74 102.576 278.939 102.377C279.138 102.177 279.25 101.907 279.25 101.625V101.094C279.252 100.954 279.308 100.82 279.408 100.72C279.507 100.621 279.641 100.564 279.781 100.563H304.219C304.359 100.564 304.493 100.621 304.592 100.72C304.692 100.82 304.748 100.954 304.75 101.094V101.625C304.75 101.907 304.862 102.177 305.061 102.377C305.26 102.576 305.531 102.688 305.812 102.688C306.094 102.688 306.365 102.576 306.564 102.377C306.763 102.177 306.875 101.907 306.875 101.625V94.1877C306.874 93.1545 306.572 92.1439 306.006 91.2794C305.44 90.415 304.634 89.7342 303.688 89.3202Z" fill="#131212"/>
<path d="M299.969 79.3126H284.031C283.045 79.3126 282.099 79.7044 281.402 80.4018C280.704 81.0992 280.312 82.0451 280.312 83.0314V87.8126C280.312 87.8538 280.322 87.8944 280.34 87.9312C280.359 87.968 280.386 88.0001 280.418 88.0248C280.451 88.0495 280.49 88.0662 280.53 88.0737C280.571 88.0811 280.612 88.079 280.652 88.0676C281.232 87.898 281.833 87.8121 282.437 87.8126H282.718C282.784 87.813 282.847 87.7892 282.896 87.7457C282.945 87.7021 282.977 87.642 282.984 87.5769C283.042 87.0577 283.289 86.5781 283.678 86.2296C284.067 85.8811 284.571 85.6882 285.094 85.6876H288.812C289.335 85.6877 289.839 85.8804 290.229 86.2289C290.619 86.5775 290.866 87.0574 290.924 87.5769C290.931 87.642 290.963 87.7021 291.012 87.7457C291.061 87.7892 291.124 87.813 291.19 87.8126H292.814C292.88 87.813 292.943 87.7892 292.992 87.7457C293.041 87.7021 293.072 87.642 293.08 87.5769C293.138 87.0581 293.384 86.5787 293.773 86.2302C294.162 85.8818 294.665 85.6886 295.187 85.6876H298.906C299.429 85.6877 299.933 85.8804 300.323 86.2289C300.712 86.5775 300.96 87.0574 301.018 87.5769C301.025 87.642 301.056 87.7021 301.105 87.7457C301.155 87.7892 301.218 87.813 301.283 87.8126H301.562C302.167 87.8123 302.768 87.8984 303.348 88.0683C303.388 88.0797 303.429 88.0818 303.47 88.0743C303.51 88.0668 303.549 88.05 303.582 88.0252C303.615 88.0004 303.641 87.9683 303.66 87.9314C303.678 87.8945 303.687 87.8538 303.687 87.8126V83.0314C303.687 82.0451 303.296 81.0992 302.598 80.4018C301.901 79.7044 300.955 79.3126 299.969 79.3126Z" fill="#131212"/>
<g clip-path="url(#clip0_0_1)">
<path d="M140.33 96.9556V99.6954C140.33 102.862 142.657 105.495 145.69 105.974V108H147.683V106.052H164.318V108H166.31V105.974C169.343 105.495 171.671 102.862 171.671 99.6954V96.9556H140.33Z" fill="#131212"/>
<path d="M142.322 90.976V79.4822C142.322 77.5578 143.888 75.9923 145.812 75.9923C147.595 75.9923 149.068 77.3353 149.276 79.0622C147.202 79.5294 145.647 81.3856 145.647 83.5992V84.9275H154.95V83.5992C154.95 81.3696 153.373 79.5024 151.276 79.0519C151.056 76.2296 148.69 74 145.812 74C142.789 74 140.33 76.4593 140.33 79.4822V90.976H139.001V94.9637H173V90.976H142.322Z" fill="#131212"/>
</g>
<path d="M103.583 100.916C103.583 101.292 103.434 101.652 103.168 101.918C102.902 102.184 102.542 102.333 102.166 102.333H85.1664C84.7907 102.333 84.4303 102.184 84.1646 101.918C83.899 101.652 83.7497 101.292 83.7497 100.916C83.7497 98.6619 84.6452 96.4999 86.2393 94.9059C87.8334 93.3118 89.9954 92.4163 92.2497 92.4163H95.083C97.3374 92.4163 99.4994 93.3118 101.093 94.9059C102.688 96.4999 103.583 98.6619 103.583 100.916ZM93.6664 79.6663C92.5456 79.6663 91.45 79.9986 90.5182 80.6213C89.5863 81.2439 88.86 82.1289 88.4311 83.1644C88.0022 84.1998 87.8899 85.3392 88.1086 86.4384C88.3272 87.5377 88.8669 88.5474 89.6594 89.3399C90.4519 90.1324 91.4616 90.6721 92.5609 90.8907C93.6601 91.1094 94.7995 90.9971 95.8349 90.5682C96.8704 90.1393 97.7554 89.413 98.378 88.4812C99.0007 87.5493 99.333 86.4537 99.333 85.3329C99.333 83.83 98.736 82.3887 97.6733 81.326C96.6106 80.2633 95.1693 79.6663 93.6664 79.6663ZM80.9164 79.6663C79.7956 79.6663 78.7 79.9986 77.7682 80.6213C76.8363 81.2439 76.11 82.1289 75.6811 83.1644C75.2522 84.1998 75.1399 85.3392 75.3586 86.4384C75.5772 87.5377 76.1169 88.5474 76.9094 89.3399C77.7019 90.1324 78.7116 90.6721 79.8109 90.8907C80.9101 91.1094 82.0495 90.9971 83.0849 90.5682C84.1204 90.1393 85.0054 89.413 85.628 88.4812C86.2507 87.5493 86.583 86.4537 86.583 85.3329C86.583 83.83 85.986 82.3887 84.9233 81.326C83.8606 80.2633 82.4193 79.6663 80.9164 79.6663ZM80.9164 100.916C80.9143 99.4282 81.2074 97.9545 81.7789 96.5806C82.3504 95.2066 83.1888 93.9597 84.2455 92.9121C83.3807 92.5856 82.4641 92.4176 81.5397 92.4163H80.293C78.2052 92.42 76.2039 93.2511 74.7275 94.7274C73.2512 96.2038 72.4201 98.2051 72.4164 100.293V100.916C72.4164 101.292 72.5656 101.652 72.8313 101.918C73.097 102.184 73.4573 102.333 73.833 102.333H81.1714C81.0064 101.879 80.9202 101.4 80.9164 100.916Z" fill="#131212"/>
<path d="M563.104 75.6032C563.645 74.5182 565.187 74.5026 565.749 75.5765L570.184 84.0507L580.595 85.9634C581.513 86.1321 581.852 87.2713 581.175 87.9145L574.215 94.5306L575.519 105.809C575.626 106.729 574.65 107.387 573.837 106.942L564.401 101.786L555.014 106.915C554.191 107.364 553.208 106.687 553.334 105.758L554.868 94.5306L547.692 87.9265C546.998 87.2871 547.335 86.1289 548.264 85.962L558.898 84.0507L563.104 75.6032Z" fill="#FAC02B"/>
<path fill-rule="evenodd" clip-rule="evenodd" d="M634.5 75.9166C628.057 75.9166 622.833 81.7537 622.833 88.3125C622.833 94.8198 626.557 101.893 632.367 104.609C633.721 105.242 635.279 105.242 636.633 104.609C642.443 101.893 646.167 94.8198 646.167 88.3125C646.167 81.7537 640.943 75.9166 634.5 75.9166ZM634.5 90.5C636.111 90.5 637.417 89.1941 637.417 87.5833C637.417 85.9725 636.111 84.6666 634.5 84.6666C632.889 84.6666 631.583 85.9725 631.583 87.5833C631.583 89.1941 632.889 90.5 634.5 90.5Z" fill="#161117"/>
<g clip-path="url(#clip1_0_1)">
<path fill-rule="evenodd" clip-rule="evenodd" d="M703.353 92.4872C706.802 92.4872 709.609 89.6804 709.609 86.2296C709.609 82.7795 706.802 79.9727 703.353 79.9727C699.903 79.9727 697.094 82.7795 697.094 86.2296C697.093 89.6804 699.903 92.4872 703.353 92.4872ZM703.5 74.4355C712.357 74.4355 719.565 81.642 719.565 90.5C719.565 94.6979 717.945 98.524 715.298 101.389C714.347 99.155 712.804 97.232 710.811 95.8033C708.618 94.2345 706.04 93.3834 703.355 93.3431C703.352 93.3424 703.349 93.3424 703.346 93.3431C700.703 93.3827 698.16 94.2099 695.99 95.7343C694.02 97.1192 692.477 98.9895 691.499 101.167C688.973 98.3285 687.436 94.5906 687.436 90.5C687.436 81.642 694.644 74.4355 703.5 74.4355ZM715.344 78.6574C718.507 81.8211 720.249 86.0266 720.249 90.5C720.249 94.9734 718.507 99.1796 715.344 102.343C712.181 105.506 707.975 107.248 703.5 107.248C699.028 107.248 694.82 105.506 691.657 102.343C688.493 99.1796 686.751 94.9734 686.751 90.5C686.751 86.0266 688.493 81.8211 691.656 78.6574C694.82 75.4944 699.028 73.752 703.5 73.752C707.975 73.752 712.181 75.4944 715.344 78.6574Z" fill="#161117"/>
</g>
<g clip-path="url(#clip2_0_1)">
<path fill-rule="evenodd" clip-rule="evenodd" d="M772.353 92.4872C775.802 92.4872 778.609 89.6804 778.609 86.2296C778.609 82.7795 775.802 79.9727 772.353 79.9727C768.903 79.9727 766.094 82.7795 766.094 86.2296C766.093 89.6804 768.903 92.4872 772.353 92.4872ZM772.5 74.4355C781.357 74.4355 788.565 81.642 788.565 90.5C788.565 94.6979 786.945 98.524 784.298 101.389C783.347 99.155 781.804 97.232 779.811 95.8033C777.618 94.2345 775.04 93.3834 772.355 93.3431C772.352 93.3424 772.349 93.3424 772.346 93.3431C769.703 93.3827 767.16 94.2099 764.99 95.7343C763.02 97.1192 761.477 98.9895 760.499 101.167C757.973 98.3285 756.436 94.5906 756.436 90.5C756.436 81.642 763.644 74.4355 772.5 74.4355ZM784.344 78.6574C787.507 81.8211 789.249 86.0266 789.249 90.5C789.249 94.9734 787.507 99.1796 784.344 102.343C781.181 105.506 776.975 107.248 772.5 107.248C768.028 107.248 763.82 105.506 760.657 102.343C757.493 99.1796 755.751 94.9734 755.751 90.5C755.751 86.0266 757.493 81.8211 760.656 78.6574C763.82 75.4944 768.028 73.752 772.5 73.752C776.975 73.752 781.181 75.4944 784.344 78.6574Z" fill="white"/>
</g>
<path d="M836.696 100.79L837.16 100.201L836.696 100.79ZM841 81.7925L840.46 82.3126C840.601 82.4595 840.796 82.5425 841 82.5425C841.204 82.5425 841.399 82.4595 841.54 82.3126L841 81.7925ZM845.304 100.79L845.769 101.379L845.304 100.79ZM837.16 100.201C835.031 98.5233 832.649 96.845 830.762 94.7205C828.901 92.6249 827.583 90.1547 827.583 86.9442H826.083C826.083 90.6228 827.612 93.4327 829.641 95.7165C831.643 97.9713 834.192 99.7715 836.231 101.379L837.16 100.201ZM827.583 86.9442C827.583 83.7802 829.372 81.1107 831.838 79.9833C834.257 78.8776 837.464 79.2005 840.46 82.3126L841.54 81.2724C838.161 77.7614 834.285 77.2155 831.214 78.6191C828.191 80.0011 826.083 83.219 826.083 86.9442H827.583ZM836.231 101.379C836.96 101.954 837.722 102.55 838.49 102.998C839.257 103.447 840.101 103.792 841 103.792V102.292C840.482 102.292 839.909 102.091 839.247 101.703C838.584 101.316 837.902 100.787 837.16 100.201L836.231 101.379ZM845.769 101.379C847.808 99.7715 850.357 97.9713 852.359 95.7165C854.387 93.4327 855.917 90.6228 855.917 86.9442H854.417C854.417 90.1547 853.099 92.6249 851.238 94.7205C849.351 96.845 846.969 98.5233 844.84 100.201L845.769 101.379ZM855.917 86.9442C855.917 83.219 853.809 80.0011 850.786 78.6191C847.715 77.2155 843.839 77.7614 840.46 81.2724L841.54 82.3126C844.536 79.2005 847.743 78.8776 850.162 79.9833C852.628 81.1107 854.417 83.7802 854.417 86.9442H855.917ZM844.84 100.201C844.098 100.787 843.416 101.316 842.753 101.703C842.091 102.091 841.518 102.292 841 102.292V103.792C841.899 103.792 842.743 103.447 843.51 102.998C844.278 102.55 845.04 101.954 845.769 101.379L844.84 100.201Z" fill="#161117"/>
<path d="M892 91V106.2C892 107.194 892.806 108 893.8 108H922.16C923.154 108 923.96 107.194 923.96 106.2V91M908.32 98.48V74M908.32 74L902.2 82.16M908.32 74L914.44 82.16" stroke="#161117" stroke-width="2" stroke-linecap="round"/>
<path d="M989.167 93.8333V91C989.167 89.8113 989.167 88.7549 989.148 87.8125H960.852C960.833 88.7549 960.833 89.8113 960.833 91V93.8333C960.833 99.1759 960.833 101.847 962.493 103.507C964.153 105.167 966.824 105.167 972.167 105.167H977.833C983.176 105.167 985.847 105.167 987.507 103.507C989.167 101.847 989.167 99.1759 989.167 93.8333Z" fill="#747474"/>
<path d="M968.979 77.5416C968.979 76.9548 968.503 76.4791 967.917 76.4791C967.33 76.4791 966.854 76.9548 966.854 77.5416V79.7789C964.815 79.9422 963.476 80.3429 962.493 81.3264C961.51 82.3098 961.109 83.6484 960.946 85.6875H989.054C988.891 83.6484 988.49 82.3098 987.507 81.3264C986.523 80.3429 985.185 79.9422 983.146 79.7789V77.5416C983.146 76.9548 982.67 76.4791 982.083 76.4791C981.497 76.4791 981.021 76.9548 981.021 77.5416V79.6849C980.078 79.6666 979.022 79.6666 977.833 79.6666H972.167C970.978 79.6666 969.922 79.6666 968.979 79.6849V77.5416Z" fill="#747474"/>
<path d="M1031.67 91H1054.33M1054.33 91L1045.83 82.5M1054.33 91L1045.83 99.5" stroke="#34967C" stroke-width="1.5" stroke-linecap="round" stroke-linejoin="round"/>
<g clip-path="url(#clip3_0_1)">
<path d="M308.138 166.339H303.64L300.428 162.811C300.122 162.475 299.608 162.435 299.253 162.718L297.261 164.309L292.003 156.005C291.845 155.755 291.571 155.604 291.275 155.604C290.98 155.604 290.706 155.755 290.548 156.005L286.059 163.095L284.376 160.632C284.215 160.397 283.949 160.257 283.664 160.257C283.38 160.257 283.113 160.397 282.953 160.632L279.053 166.339H275.862C275.386 166.339 275 166.725 275 167.201C275 167.676 275.386 168.062 275.862 168.062H277.876L277.19 169.065C276.921 169.458 277.022 169.994 277.415 170.263C277.564 170.364 277.733 170.413 277.901 170.413C278.176 170.413 278.446 170.282 278.613 170.038L278.945 169.551L283.664 162.646L285.055 164.681L281.972 169.551L279.742 173.073C279.487 173.476 279.607 174.008 280.009 174.262C280.152 174.353 280.311 174.396 280.469 174.396C280.754 174.396 281.034 174.254 281.198 173.995L281.607 173.348L291.276 158.076L299.131 170.484L299.327 170.794C299.581 171.196 300.113 171.315 300.515 171.061C300.881 170.829 301.012 170.368 300.841 169.983C300.824 169.946 300.805 169.908 300.782 169.872L298.188 165.774L299.698 164.568L304.871 170.25L305.474 170.913C305.644 171.1 305.878 171.194 306.112 171.194C306.319 171.194 306.526 171.12 306.692 170.97C307.043 170.649 307.069 170.105 306.749 169.753L305.209 168.062H308.139C308.614 168.062 309 167.676 309 167.201C309 166.725 308.614 166.339 308.138 166.339Z" fill="black"/>
</g>
<g clip-path="url(#clip4_0_1)">
<path d="M216.273 164.227C216.273 163.8 215.927 163.455 215.5 163.455C215.073 163.455 214.727 163.8 214.727 164.227C214.727 166.256 216.965 169.043 217.22 169.354C217.374 169.54 217.595 169.636 217.819 169.636C217.991 169.636 218.164 169.579 218.309 169.461C218.638 169.19 218.686 168.704 218.416 168.373C217.587 167.364 216.273 165.346 216.273 164.227Z" fill="black"/>
<path d="M232.5 163.455C232.073 163.455 231.727 163.8 231.727 164.227C231.727 165.342 230.413 167.362 229.584 168.374C229.314 168.704 229.362 169.191 229.692 169.461C229.835 169.579 230.009 169.636 230.182 169.636C230.405 169.636 230.626 169.54 230.779 169.354C231.035 169.043 233.273 166.257 233.273 164.227C233.273 163.8 232.927 163.455 232.5 163.455Z" fill="black"/>
<path d="M224 163.455C223.573 163.455 223.227 163.8 223.227 164.227V168.864C223.227 169.291 223.573 169.636 224 169.636C224.427 169.636 224.773 169.291 224.773 168.864V164.227C224.773 163.8 224.427 163.455 224 163.455Z" fill="black"/>
<path d="M232.5 151.091C232.032 151.091 231.542 151.153 231.034 151.247C229.332 149.263 226.813 148 224 148C221.187 148 218.668 149.263 216.966 151.247C216.458 151.153 215.968 151.091 215.5 151.091C210.813 151.091 207 154.904 207 159.591C207 162.803 208.811 165.722 211.654 167.166L211.639 178.843C211.639 179.686 211.966 180.479 212.562 181.075C213.158 181.672 213.949 182 214.792 182H233.211C234.95 182 236.364 180.586 236.364 178.847V167.154C239.197 165.707 241 162.792 241 159.591C241 154.904 237.187 151.091 232.5 151.091ZM234.818 178.847C234.818 179.733 234.097 180.455 233.211 180.455H214.792C214.363 180.455 213.959 180.287 213.655 179.983C213.352 179.679 213.184 179.275 213.185 178.845L213.189 175.818H234.818V178.847ZM235.297 165.952C235.256 165.968 235.217 165.988 235.181 166.011C235.084 166.072 235.004 166.152 234.944 166.244C234.884 166.335 234.843 166.441 234.826 166.554C234.82 166.597 234.817 166.64 234.818 166.684V174.273H213.191L213.201 166.694C213.201 166.652 213.199 166.609 213.193 166.567C213.177 166.45 213.134 166.342 213.071 166.247C213.012 166.159 212.935 166.082 212.841 166.023C212.803 165.999 212.762 165.978 212.72 165.96C210.184 164.851 208.545 162.354 208.545 159.591C208.545 155.756 211.665 152.636 215.5 152.636C215.65 152.636 215.808 152.654 215.963 152.667C215.182 154.025 214.727 155.596 214.727 157.273C214.727 157.7 215.073 158.045 215.5 158.045C215.927 158.045 216.273 157.7 216.273 157.273C216.273 153.012 219.739 149.545 224 149.545C228.261 149.545 231.727 153.012 231.727 157.273C231.727 157.7 232.073 158.045 232.5 158.045C232.927 158.045 233.273 157.7 233.273 157.273C233.273 155.596 232.818 154.026 232.037 152.667C232.192 152.654 232.35 152.636 232.5 152.636C236.335 152.636 239.455 155.756 239.455 159.591C239.455 162.344 237.823 164.838 235.297 165.952Z" fill="black"/>
</g>
<g clip-path="url(#clip5_0_1)">
<path d="M155.317 164.843C155.196 164.885 155.078 164.934 154.962 164.991C154.12 165.436 153.47 166.174 153.136 167.066C152.586 168.348 150.038 172.651 140.323 174.124C140.008 174.168 139.727 174.342 139.548 174.604C139.373 174.863 139.315 175.184 139.39 175.488C139.607 176.273 139.994 177 140.523 177.618C140.559 177.681 140.606 177.737 140.662 177.782C141.675 178.865 142.928 179.695 144.321 180.205C144.336 180.211 144.35 180.218 144.365 180.223C145.025 180.483 145.701 180.699 146.389 180.869C147.606 181.169 148.847 181.362 150.098 181.443C150.12 181.447 150.143 181.45 150.165 181.452C150.172 181.452 150.178 181.448 150.183 181.448C150.512 181.467 150.846 181.481 151.187 181.481C153.345 181.481 155.726 181.045 157.638 179.621C158.558 180.248 159.735 180.364 160.759 179.927C161.615 180.883 162.824 181.449 164.107 181.494C165.39 181.538 166.635 181.058 167.556 180.163C168.802 180.751 170.274 180.581 171.353 179.724C172.433 178.868 172.933 177.473 172.644 176.126C172.354 174.779 171.326 173.712 169.99 173.374C169.581 171.95 168.459 170.841 167.03 170.448C165.601 170.054 164.07 170.433 162.99 171.448C162.367 171.102 161.644 170.979 160.942 171.1C160.897 170.21 160.799 169.324 160.649 168.446C160.47 167.382 159.931 166.412 159.121 165.699L162.094 150.322C162.195 149.818 162.091 149.295 161.804 148.868C161.367 148.209 160.574 147.88 159.798 148.035C159.022 148.191 158.418 148.8 158.269 149.577L155.317 164.843ZM162.735 172.609C162.972 172.789 163.308 172.752 163.5 172.525C164.279 171.6 165.521 171.205 166.692 171.511C167.863 171.816 168.753 172.767 168.982 173.955C169.027 174.189 169.216 174.368 169.452 174.401C170.468 174.544 171.294 175.291 171.538 176.288C171.782 177.284 171.395 178.329 170.561 178.925C169.726 179.522 168.613 179.55 167.749 178.997C167.514 178.847 167.205 178.893 167.024 179.105C166.311 179.95 165.248 180.42 164.143 180.379C163.037 180.339 162.012 179.792 161.363 178.896C161.191 178.66 160.867 178.596 160.618 178.749C159.903 179.192 158.995 179.179 158.292 178.717C157.589 178.255 157.218 177.427 157.341 176.594C157.463 175.762 158.058 175.076 158.864 174.836C159.098 174.766 159.259 174.552 159.262 174.308C159.28 173.125 160.242 172.173 161.426 172.168C161.899 172.166 162.359 172.322 162.735 172.609ZM158.174 173.906C156.982 174.432 156.211 175.609 156.204 176.912C156.205 177.604 156.426 178.279 156.836 178.837C155.477 179.739 153.899 180.255 152.27 180.332C153.216 179.707 154.068 178.952 154.803 178.088C155 177.852 154.968 177.5 154.732 177.303C154.495 177.105 154.143 177.137 153.946 177.374C152.863 178.616 151.537 179.621 150.048 180.328C148.905 180.244 147.772 180.062 146.66 179.786C146.56 179.761 146.471 179.73 146.374 179.706C149.352 178.688 152.764 176.933 154.79 173.951C154.957 173.697 154.889 173.355 154.638 173.184C154.386 173.012 154.043 173.075 153.868 173.324C151.678 176.551 147.639 178.242 144.566 179.102C143.714 178.765 142.918 178.302 142.202 177.731C144.378 177.419 146.491 176.768 148.464 175.801C148.642 175.707 148.755 175.525 148.761 175.324C148.767 175.124 148.664 174.935 148.492 174.831C148.32 174.727 148.106 174.724 147.931 174.822C145.894 175.934 142.989 176.499 141.251 176.755C140.893 176.303 140.632 175.784 140.482 175.227C149.048 173.928 152.41 170.425 153.645 168.468C153.856 168.671 154.086 168.853 154.332 169.012C155.15 169.523 156.099 169.786 157.063 169.768C157.126 169.768 157.188 169.768 157.252 169.765C158.069 169.751 158.879 169.624 159.661 169.387C159.757 170.081 159.816 170.779 159.836 171.478C158.931 171.981 158.315 172.88 158.174 173.906ZM159.462 168.271C158.738 168.512 157.98 168.64 157.216 168.651C156.417 168.698 155.623 168.497 154.941 168.077C154.662 167.901 154.412 167.683 154.201 167.429C154.437 166.817 154.881 166.308 155.456 165.991C156.091 165.698 156.821 165.689 157.463 165.966C158.456 166.375 159.198 167.23 159.462 168.271ZM159.363 149.789C159.451 149.339 159.884 149.044 160.335 149.127C160.556 149.17 160.752 149.299 160.877 149.487C160.999 149.669 161.044 149.892 161 150.107L158.11 165.045C158.026 165.005 157.943 164.96 157.858 164.926C157.42 164.759 156.957 164.668 156.488 164.659L159.363 149.789Z" fill="black"/>
<path d="M165.203 173.963C165.429 173.695 165.789 173.581 166.129 173.669C166.468 173.757 166.726 174.033 166.793 174.377C166.843 174.64 167.073 174.829 167.34 174.829C167.375 174.829 167.411 174.826 167.446 174.819C167.591 174.791 167.719 174.707 167.802 174.585C167.885 174.462 167.916 174.312 167.888 174.167C167.74 173.4 167.165 172.787 166.41 172.59C165.655 172.393 164.854 172.648 164.351 173.244C164.152 173.48 164.182 173.832 164.418 174.03C164.653 174.229 165.005 174.199 165.203 173.963Z" fill="black"/>
<path d="M168.262 167.23C168.262 168.307 169.136 169.18 170.213 169.18C171.291 169.18 172.164 168.307 172.164 167.23C172.164 166.152 171.291 165.279 170.213 165.279C169.136 165.279 168.262 166.152 168.262 167.23ZM171.049 167.23C171.049 167.691 170.675 168.066 170.213 168.066C169.751 168.066 169.377 167.691 169.377 167.23C169.377 166.768 169.751 166.393 170.213 166.393C170.675 166.393 171.049 166.768 171.049 167.23Z" fill="black"/>
<path d="M166.59 165.279C167.514 165.279 168.262 164.53 168.262 163.607C168.262 162.683 167.514 161.934 166.59 161.934C165.667 161.934 164.918 162.683 164.918 163.607C164.918 164.53 165.667 165.279 166.59 165.279ZM166.59 163.049C166.898 163.049 167.148 163.299 167.148 163.607C167.148 163.914 166.898 164.164 166.59 164.164C166.282 164.164 166.033 163.914 166.033 163.607C166.033 163.299 166.282 163.049 166.59 163.049Z" fill="black"/>
<path d="M143.18 160.82C143.488 160.82 143.738 160.57 143.738 160.262V159.148C143.738 158.84 143.488 158.59 143.18 158.59C142.872 158.59 142.623 158.84 142.623 159.148V160.262C142.623 160.57 142.872 160.82 143.18 160.82Z" fill="black"/>
<path d="M143.738 163.607V162.492C143.738 162.184 143.488 161.934 143.18 161.934C142.872 161.934 142.623 162.184 142.623 162.492V163.607C142.623 163.914 142.872 164.164 143.18 164.164C143.488 164.164 143.738 163.914 143.738 163.607Z" fill="black"/>
<path d="M140.951 161.934H142.066C142.373 161.934 142.623 161.685 142.623 161.377C142.623 161.069 142.373 160.82 142.066 160.82H140.951C140.643 160.82 140.393 161.069 140.393 161.377C140.393 161.685 140.643 161.934 140.951 161.934Z" fill="black"/>
<path d="M144.295 161.934H145.41C145.718 161.934 145.967 161.685 145.967 161.377C145.967 161.069 145.718 160.82 145.41 160.82H144.295C143.987 160.82 143.738 161.069 143.738 161.377C143.738 161.685 143.987 161.934 144.295 161.934Z" fill="black"/>
<path d="M145.294 167.95L144.458 168.786C144.313 168.926 144.255 169.134 144.306 169.328C144.357 169.523 144.51 169.675 144.704 169.726C144.899 169.777 145.107 169.719 145.247 169.574L146.083 168.738C146.294 168.52 146.291 168.172 146.076 167.957C145.861 167.742 145.513 167.739 145.294 167.95Z" fill="black"/>
<path d="M148.591 165.442C148.373 165.224 148.02 165.224 147.803 165.442L146.967 166.278C146.822 166.418 146.764 166.625 146.815 166.82C146.866 167.015 147.018 167.167 147.213 167.218C147.408 167.269 147.615 167.211 147.755 167.066L148.591 166.23C148.808 166.012 148.808 165.66 148.591 165.442Z" fill="black"/>
<path d="M147.755 167.95C147.536 167.739 147.188 167.742 146.973 167.957C146.758 168.172 146.755 168.52 146.967 168.738L147.803 169.574C148.021 169.786 148.369 169.783 148.584 169.568C148.799 169.353 148.802 169.005 148.591 168.786L147.755 167.95Z" fill="black"/>
<path d="M146.083 166.278L145.247 165.442C145.028 165.231 144.68 165.234 144.465 165.449C144.25 165.664 144.247 166.012 144.458 166.23L145.295 167.066C145.513 167.278 145.861 167.275 146.076 167.06C146.291 166.845 146.294 166.497 146.083 166.278Z" fill="black"/>
<path d="M145.87 153.614L155.346 155.286C155.378 155.292 155.411 155.295 155.443 155.294C155.731 155.293 155.971 155.072 155.996 154.785C156.021 154.499 155.823 154.24 155.54 154.189L146.064 152.516C145.765 152.47 145.483 152.672 145.43 152.97C145.378 153.269 145.573 153.555 145.87 153.614Z" fill="black"/>
<path d="M154.788 158.073C154.82 158.079 154.853 158.082 154.886 158.081C155.174 158.08 155.413 157.859 155.438 157.572C155.463 157.285 155.266 157.027 154.982 156.975L148.941 155.909C148.638 155.855 148.348 156.057 148.295 156.361C148.241 156.664 148.444 156.953 148.747 157.007L154.788 158.073Z" fill="black"/>
<path d="M146.474 158.876C146.449 159.022 146.482 159.172 146.567 159.293C146.651 159.414 146.781 159.496 146.926 159.522L154.231 160.811C154.263 160.817 154.295 160.82 154.328 160.82C154.617 160.82 154.858 160.599 154.883 160.311C154.909 160.023 154.709 159.763 154.424 159.713L147.12 158.423C146.974 158.397 146.824 158.431 146.703 158.516C146.582 158.601 146.5 158.73 146.474 158.876Z" fill="black"/>
</g>
<g clip-path="url(#clip6_0_1)">
<path d="M103.866 180.114C103.507 180.474 103.029 180.672 102.521 180.672C102.013 180.672 101.535 180.474 101.175 180.114C99.9156 178.855 97.8658 178.855 96.606 180.114C96.2466 180.474 95.7687 180.672 95.2605 180.672C94.7522 180.672 94.2743 180.474 93.9149 180.114C92.6552 178.855 90.6054 178.855 89.3456 180.114C88.9861 180.474 88.5083 180.672 88 180.672C87.4917 180.672 87.0139 180.474 86.6544 180.114C85.3947 178.855 83.3449 178.855 82.0851 180.114C81.7257 180.474 81.2478 180.672 80.7395 180.672C80.2313 180.672 79.7534 180.474 79.394 180.114C78.1343 178.855 76.0845 178.855 74.8247 180.114C74.4653 180.474 73.9874 180.672 73.4792 180.672C72.9709 180.672 72.493 180.474 72.1336 180.114C71.8744 179.855 71.4539 179.855 71.1945 180.114C70.9352 180.374 70.9351 180.794 71.1945 181.054C71.8048 181.664 72.6161 182 73.4792 182C74.3422 182 75.1535 181.664 75.7638 181.054C76.5058 180.312 77.713 180.312 78.4549 181.054C79.0652 181.664 79.8765 182 80.7395 182C81.6026 182 82.414 181.664 83.0243 181.054C83.7661 180.312 84.9733 180.312 85.7153 181.054C86.3256 181.664 87.137 182 88 182C88.863 182 89.6744 181.664 90.2847 181.054C91.0266 180.312 92.2338 180.312 92.9758 181.054C93.586 181.664 94.3974 182 95.2605 182C96.1235 182 96.9348 181.664 97.5451 181.054C98.2871 180.312 99.4943 180.312 100.236 181.054C100.846 181.664 101.658 182 102.521 182C103.384 182 104.195 181.664 104.806 181.054C105.065 180.794 105.065 180.374 104.806 180.114C104.546 179.855 104.126 179.855 103.866 180.114Z" fill="black"/>
<path d="M103.866 174.765C103.507 175.125 103.029 175.323 102.521 175.323C102.013 175.323 101.535 175.125 101.175 174.765C99.9156 173.505 97.8659 173.505 96.6061 174.765C96.2467 175.125 95.7688 175.323 95.2606 175.323C94.7523 175.323 94.2744 175.125 93.915 174.765C92.6553 173.505 90.6055 173.505 89.3457 174.765C88.6037 175.507 87.3965 175.507 86.6546 174.765C85.3949 173.505 83.345 173.505 82.0852 174.765C81.7258 175.125 81.248 175.323 80.7397 175.323C80.2314 175.323 79.7536 175.125 79.3942 174.765C78.1344 173.505 76.0847 173.505 74.8248 174.765C74.4654 175.125 73.9876 175.323 73.4793 175.323C72.971 175.323 72.4932 175.125 72.1338 174.765C71.8745 174.506 71.454 174.506 71.1946 174.765C70.9353 175.024 70.9353 175.445 71.1946 175.704C72.4545 176.964 74.5042 176.964 75.764 175.704C76.506 174.962 77.7132 174.962 78.4551 175.704C79.7148 176.964 81.7646 176.964 83.0244 175.704C83.7663 174.962 84.9736 174.962 85.7155 175.704C86.9753 176.964 89.025 176.964 90.2848 175.704C91.0266 174.962 92.234 174.962 92.9759 175.704C93.6059 176.334 94.433 176.649 95.2606 176.649C96.0879 176.649 96.9154 176.334 97.5452 175.704C98.2872 174.962 99.4944 174.962 100.236 175.704C101.496 176.964 103.546 176.964 104.806 175.704C105.065 175.445 105.065 175.025 104.806 174.765C104.546 174.506 104.126 174.506 103.866 174.765Z" fill="black"/>
<path d="M71.6641 154.906H82.3776V169.158C82.2764 169.237 82.1783 169.323 82.0851 169.416C81.7257 169.775 81.2479 169.973 80.7396 169.973C80.2313 169.973 79.7535 169.775 79.3941 169.416C78.1343 168.156 76.0846 168.156 74.8247 169.416C74.4653 169.775 73.9875 169.973 73.4792 169.973C72.9709 169.973 72.4931 169.775 72.1337 169.416C71.8744 169.157 71.4539 169.157 71.1945 169.416C70.9352 169.675 70.9352 170.096 71.1945 170.355C72.4543 171.615 74.5041 171.615 75.7638 170.355C76.5059 169.613 77.7131 169.613 78.4549 170.355C79.7147 171.615 81.7645 171.615 83.0243 170.355C83.7662 169.613 84.9735 169.613 85.7153 170.355C86.9751 171.615 89.0248 171.615 90.2847 170.355C91.0265 169.613 92.2338 169.613 92.9757 170.355C93.6057 170.985 94.4329 171.3 95.2604 171.3C96.0877 171.3 96.9153 170.985 97.5451 170.355C98.2871 169.613 99.4943 169.613 100.236 170.355C101.496 171.615 103.546 171.615 104.806 170.355C105.065 170.096 105.065 169.675 104.806 169.416C104.546 169.157 104.126 169.157 103.866 169.416C103.507 169.775 103.029 169.973 102.521 169.973C102.013 169.973 101.535 169.775 101.175 169.416C101.082 169.323 100.984 169.237 100.883 169.158V154.906H104.336C104.703 154.906 105 154.609 105 154.242C105 153.875 104.703 153.578 104.336 153.578H100.848C100.515 150.447 97.8583 148 94.6407 148C91.423 148 88.7664 150.447 88.4338 153.578H86.3267C85.994 150.447 83.3375 148 80.1198 148C76.9022 148 74.2457 150.447 73.913 153.578H71.6641C71.2974 153.578 71 153.875 71 154.242C71 154.609 71.2974 154.906 71.6641 154.906ZM77.9618 153.578C78.2461 152.656 79.1059 151.984 80.1198 151.984C81.1337 151.984 81.9936 152.656 82.2778 153.578H77.9618ZM96.8985 154.906V156.766H86.362V154.906H96.8985ZM96.8985 159.422H86.362V158.094H96.8985V159.422ZM86.362 160.75H96.8985V162.609H86.362V160.75ZM92.4827 153.578C92.767 152.656 93.6268 151.984 94.6407 151.984C95.6546 151.984 96.5145 152.656 96.7987 153.578H92.4827ZM95.2604 169.973C94.7522 169.973 94.2743 169.775 93.9149 169.416C92.6551 168.156 90.6054 168.156 89.3456 169.416C88.6036 170.158 87.3964 170.158 86.6545 169.416C86.5612 169.323 86.4633 169.237 86.362 169.158V166.594H88.6419C89.0087 166.594 89.306 166.296 89.306 165.93C89.306 165.563 89.0087 165.266 88.6419 165.266H86.362V163.938H96.8985V165.266H94.6186C94.2518 165.266 93.9545 165.563 93.9545 165.93C93.9545 166.296 94.2518 166.594 94.6186 166.594H96.8985V169.158C96.7972 169.237 96.6992 169.323 96.606 169.416C96.2466 169.775 95.7687 169.973 95.2604 169.973ZM94.6407 149.328C97.3503 149.328 99.5547 151.533 99.5547 154.242V168.54C99.1171 168.449 98.6643 168.449 98.2266 168.54V154.242C98.2266 152.265 96.618 150.656 94.6407 150.656C92.8903 150.656 91.4298 151.917 91.1174 153.578H89.7727C90.0981 151.182 92.1564 149.328 94.6407 149.328ZM80.1198 149.328C82.8295 149.328 85.0339 151.533 85.0339 154.242V168.54C84.5962 168.449 84.1434 168.449 83.7058 168.54V154.242C83.7058 152.265 82.0971 150.656 80.1198 150.656C78.3695 150.656 76.9089 151.917 76.5965 153.578H75.2519C75.5772 151.182 77.6356 149.328 80.1198 149.328Z" fill="black"/>
<path d="M91.6305 165.266C91.4552 165.266 91.2845 165.337 91.1603 165.46C91.0368 165.584 90.9664 165.755 90.9664 165.93C90.9664 166.104 91.0368 166.276 91.1603 166.399C91.2845 166.523 91.4552 166.594 91.6305 166.594C91.8051 166.594 91.9765 166.523 92.1 166.399C92.2235 166.276 92.2946 166.104 92.2946 165.93C92.2946 165.755 92.2235 165.584 92.1 165.46C91.9765 165.337 91.8051 165.266 91.6305 165.266Z" fill="black"/>
</g>
<path d="M362.205 154.25C362.385 153.906 362.48 153.524 362.484 153.135C362.484 151.754 361.364 150.634 359.982 150.634C358.601 150.634 357.481 151.754 357.481 153.135C357.484 153.524 357.58 153.906 357.759 154.25C351.784 154.551 346.323 156.08 346.323 158.746C346.322 159.141 346.64 159.462 347.035 159.464C347.06 159.464 347.085 159.463 347.11 159.461H372.926C373.321 159.461 373.641 159.141 373.641 158.746C373.641 156.08 368.202 154.551 362.205 154.25ZM360.018 152.07C360.602 152.07 361.076 152.544 361.076 153.128C361.076 153.712 360.602 154.186 360.018 154.186C359.434 154.186 358.96 153.712 358.96 153.128C358.96 152.544 359.434 152.07 360.018 152.07ZM348.26 158.06C349.583 156.873 353.885 155.615 360.018 155.615V155.644C366.15 155.644 370.453 156.902 371.775 158.06H348.26Z" fill="black"/>
<path d="M349.611 162.906C349.217 162.906 348.897 163.226 348.897 163.62V171.304C348.897 171.699 349.217 172.019 349.611 172.019C350.006 172.019 350.326 171.699 350.326 171.304V163.62C350.326 163.226 350.006 162.906 349.611 162.906Z" fill="black"/>
<path d="M376.285 163.099H373.641V161.055C373.641 160.66 373.321 160.34 372.926 160.34H347.11C346.715 160.34 346.395 160.66 346.395 161.055V163.099H343.715C343.32 163.099 343 163.419 343 163.814C343 164.208 343.32 164.528 343.715 164.528H346.402V175.078C346.402 178.244 348.668 179.366 350.798 179.366H369.309C372.476 179.366 373.598 177.151 373.598 175.078V164.528H376.285C376.68 164.528 377 164.208 377 163.814C377 163.419 376.68 163.099 376.285 163.099ZM372.211 175.078C372.211 176.386 371.711 177.937 369.352 177.937H350.769C349.661 177.937 347.803 177.565 347.803 175.078V161.769H372.211V175.078Z" fill="black"/>
<path d="M711.983 162.453C712.088 162.709 712.336 162.863 712.596 162.863C712.681 162.863 712.767 162.847 712.85 162.813L714.665 162.061C715.004 161.921 715.165 161.532 715.024 161.193C714.884 160.854 714.496 160.694 714.157 160.834L712.342 161.586C712.003 161.726 711.842 162.114 711.983 162.453Z" fill="black"/>
<path d="M716.336 168.062H710.204C709.861 162.732 705.416 158.5 700 158.5C694.584 158.5 690.139 162.732 689.796 168.062H683.664C683.297 168.062 683 168.36 683 168.726C683 169.093 683.297 169.39 683.664 169.39H697.012C697.378 169.39 697.676 169.093 697.676 168.726C697.676 168.36 697.378 168.062 697.012 168.062H691.126C691.467 163.464 695.317 159.828 700 159.828C704.683 159.828 708.533 163.464 708.874 168.062H702.988C702.622 168.062 702.324 168.36 702.324 168.726C702.324 169.093 702.622 169.39 702.988 169.39H716.336C716.703 169.39 717 169.093 717 168.726C717 168.36 716.703 168.062 716.336 168.062Z" fill="black"/>
<path d="M700 156.909C700.367 156.909 700.664 156.612 700.664 156.245V149.975C700.664 149.608 700.367 149.311 700 149.311C699.633 149.311 699.336 149.608 699.336 149.975V156.245C699.336 156.612 699.633 156.909 700 156.909Z" fill="black"/>
<path d="M704.963 156.744C705.046 156.778 705.132 156.795 705.217 156.795C705.478 156.795 705.725 156.64 705.831 156.384L706.583 154.569C706.723 154.231 706.562 153.842 706.223 153.702C705.884 153.562 705.496 153.722 705.356 154.061L704.604 155.876C704.464 156.215 704.624 156.603 704.963 156.744Z" fill="black"/>
<path d="M708.825 160.565C708.995 160.565 709.165 160.5 709.295 160.37L713.792 155.873C714.052 155.614 714.052 155.193 713.792 154.934C713.533 154.675 713.113 154.675 712.853 154.934L708.356 159.431C708.096 159.691 708.096 160.111 708.356 160.37C708.485 160.5 708.655 160.565 708.825 160.565Z" fill="black"/>
<path d="M694.169 156.384C694.275 156.64 694.522 156.794 694.783 156.794C694.867 156.794 694.954 156.778 695.037 156.744C695.376 156.603 695.536 156.215 695.396 155.876L694.644 154.061C694.504 153.722 694.116 153.562 693.777 153.702C693.438 153.842 693.277 154.231 693.417 154.569L694.169 156.384Z" fill="black"/>
<path d="M685.335 163.37L687.15 164.122C687.233 164.157 687.319 164.173 687.404 164.173C687.664 164.173 687.912 164.019 688.017 163.763C688.158 163.424 687.997 163.036 687.658 162.895L685.843 162.144C685.504 162.003 685.116 162.164 684.976 162.503C684.835 162.842 684.996 163.23 685.335 163.37Z" fill="black"/>
<path d="M690.705 160.37C690.835 160.5 691.005 160.565 691.175 160.565C691.345 160.565 691.514 160.5 691.644 160.37C691.903 160.111 691.903 159.691 691.644 159.431L687.147 154.934C686.887 154.675 686.467 154.675 686.208 154.934C685.948 155.193 685.948 155.614 686.208 155.873L690.705 160.37Z" fill="black"/>
<path d="M711.199 172.952C710.701 173.45 710.039 173.724 709.335 173.724C708.631 173.724 707.969 173.45 707.471 172.952C705.925 171.406 703.41 171.406 701.864 172.952C701.366 173.45 700.704 173.724 700 173.724C699.296 173.724 698.634 173.45 698.136 172.952C696.59 171.406 694.075 171.406 692.529 172.952C692.031 173.45 691.369 173.724 690.665 173.724C689.961 173.724 689.299 173.45 688.801 172.952C688.542 172.693 688.122 172.693 687.862 172.952C687.603 173.211 687.603 173.632 687.862 173.891C688.611 174.64 689.606 175.052 690.665 175.052C691.724 175.052 692.72 174.64 693.469 173.891C694.496 172.863 696.169 172.863 697.197 173.891C697.946 174.64 698.941 175.052 700 175.052C701.059 175.052 702.055 174.64 702.803 173.891C703.831 172.863 705.504 172.863 706.532 173.891C707.281 174.64 708.276 175.052 709.335 175.052C710.394 175.052 711.389 174.64 712.138 173.891C712.398 173.632 712.398 173.211 712.138 172.952C711.879 172.693 711.458 172.693 711.199 172.952Z" fill="black"/>
<path d="M706.532 178.591C706.034 179.089 705.372 179.363 704.667 179.363C703.963 179.363 703.301 179.089 702.803 178.591C702.055 177.842 701.059 177.43 700 177.43C698.941 177.43 697.946 177.842 697.197 178.591C696.699 179.089 696.037 179.363 695.333 179.363C694.628 179.363 693.966 179.089 693.469 178.591C693.209 178.332 692.789 178.332 692.529 178.591C692.27 178.85 692.27 179.271 692.529 179.53C694.075 181.076 696.59 181.076 698.136 179.53C698.634 179.032 699.296 178.758 700 178.758C700.704 178.758 701.366 179.032 701.864 179.53C702.637 180.303 703.652 180.689 704.667 180.689C705.683 180.689 706.698 180.303 707.471 179.53C707.73 179.271 707.73 178.85 707.471 178.591C707.211 178.332 706.791 178.332 706.532 178.591Z" fill="black"/>
<path d="M700.469 169.196C700.593 169.072 700.664 168.901 700.664 168.726C700.664 168.552 700.593 168.38 700.469 168.257C700.346 168.133 700.175 168.062 700 168.062C699.825 168.062 699.654 168.133 699.531 168.257C699.407 168.38 699.336 168.552 699.336 168.726C699.336 168.901 699.407 169.072 699.531 169.196C699.654 169.319 699.825 169.39 700 169.39C700.175 169.39 700.346 169.319 700.469 169.196Z" fill="black"/>
<path d="M633.463 157.954C633.487 157.815 633.565 157.691 633.681 157.61C633.796 157.529 633.938 157.497 634.077 157.521C636.69 157.982 639.082 159.282 640.889 161.224C640.938 161.275 640.977 161.335 641.002 161.401C641.028 161.467 641.04 161.537 641.038 161.608C641.037 161.679 641.021 161.748 640.992 161.813C640.963 161.877 640.921 161.935 640.869 161.983C640.817 162.031 640.757 162.069 640.69 162.093C640.624 162.117 640.553 162.128 640.483 162.125C640.412 162.122 640.343 162.104 640.279 162.074C640.215 162.044 640.158 162.001 640.111 161.948C638.462 160.175 636.28 158.989 633.896 158.568C633.757 158.544 633.633 158.465 633.552 158.35C633.471 158.235 633.439 158.092 633.463 157.954ZM646.643 175.675V176.253C646.643 176.823 646.416 177.369 646.013 177.772C645.611 178.175 645.064 178.402 644.494 178.402H619.506C618.936 178.402 618.389 178.175 617.987 177.772C617.584 177.369 617.357 176.823 617.357 176.253V175.675C617.357 175.105 617.584 174.559 617.987 174.156C618.389 173.753 618.936 173.526 619.506 173.526H626.89V170.011H618.269C618.128 170.011 617.993 169.955 617.894 169.856C617.794 169.756 617.738 169.621 617.738 169.48C617.743 165.791 619.175 162.247 621.735 159.591C624.294 156.935 627.783 155.373 631.469 155.231V153.844H628.813C628.672 153.844 628.536 153.788 628.437 153.688C628.337 153.589 628.281 153.453 628.281 153.313C628.281 153.172 628.337 153.037 628.437 152.937C628.536 152.837 628.672 152.781 628.813 152.781H635.188C635.328 152.781 635.464 152.837 635.563 152.937C635.663 153.037 635.719 153.172 635.719 153.313C635.719 153.453 635.663 153.589 635.563 153.688C635.464 153.788 635.328 153.844 635.188 153.844H632.531V155.231C636.217 155.373 639.706 156.935 642.266 159.591C644.825 162.247 646.257 165.791 646.262 169.48C646.262 169.621 646.206 169.756 646.106 169.856C646.007 169.955 645.872 170.011 645.731 170.011H637.108V173.526H644.492C645.063 173.526 645.609 173.752 646.013 174.155C646.416 174.558 646.643 175.105 646.643 175.675ZM618.811 168.949H645.189C645.052 165.543 643.603 162.321 641.144 159.96C638.686 157.598 635.409 156.279 632 156.279C628.591 156.279 625.314 157.598 622.856 159.96C620.397 162.321 618.948 165.543 618.811 168.949ZM627.955 173.526H636.045V170.011H627.955V173.526ZM645.581 175.675C645.581 175.387 645.466 175.111 645.262 174.907C645.059 174.703 644.783 174.588 644.494 174.588H619.506C619.217 174.588 618.941 174.703 618.738 174.907C618.534 175.111 618.419 175.387 618.419 175.675V176.253C618.419 176.541 618.534 176.817 618.738 177.021C618.941 177.225 619.217 177.34 619.506 177.34H644.494C644.783 177.34 645.059 177.225 645.262 177.021C645.466 176.817 645.581 176.541 645.581 176.253V175.675ZM622.245 154.171L622.253 154.184L623.152 155.501C623.2 155.573 623.266 155.631 623.342 155.672C623.419 155.712 623.504 155.733 623.591 155.733C623.688 155.733 623.783 155.707 623.865 155.657C623.948 155.608 624.016 155.536 624.062 155.451C624.107 155.365 624.128 155.269 624.123 155.172C624.117 155.076 624.086 154.983 624.031 154.903L621.934 151.83C621.895 151.772 621.845 151.723 621.786 151.685C621.728 151.646 621.663 151.62 621.594 151.607C621.526 151.594 621.455 151.595 621.387 151.609C621.318 151.623 621.254 151.651 621.196 151.69C621.138 151.729 621.089 151.78 621.051 151.838C621.013 151.896 620.986 151.962 620.973 152.03C620.96 152.099 620.961 152.169 620.975 152.238C620.989 152.306 621.017 152.371 621.056 152.429L622.245 154.171ZM620.366 159.076C620.481 159.076 620.594 159.039 620.686 158.97C620.778 158.9 620.846 158.803 620.878 158.691C620.91 158.58 620.904 158.462 620.863 158.354C620.821 158.246 620.746 158.155 620.648 158.094L619.3 157.244L619.288 157.236L617.502 156.112C617.443 156.073 617.377 156.047 617.308 156.035C617.239 156.022 617.168 156.023 617.099 156.038C617.03 156.053 616.965 156.082 616.907 156.122C616.85 156.163 616.801 156.214 616.763 156.274C616.726 156.334 616.7 156.4 616.689 156.469C616.677 156.539 616.679 156.61 616.696 156.678C616.712 156.747 616.741 156.812 616.782 156.869C616.824 156.926 616.876 156.974 616.936 157.011L620.081 158.997C620.166 159.05 620.265 159.077 620.366 159.076ZM640.411 155.733C640.497 155.733 640.583 155.712 640.659 155.672C640.736 155.631 640.801 155.573 640.85 155.501L641.748 154.184L641.757 154.171L642.944 152.429C642.983 152.371 643.011 152.306 643.025 152.238C643.039 152.169 643.04 152.099 643.027 152.03C643.014 151.962 642.988 151.896 642.949 151.838C642.911 151.78 642.862 151.729 642.804 151.69C642.746 151.651 642.682 151.623 642.613 151.609C642.545 151.595 642.474 151.594 642.406 151.607C642.337 151.62 642.272 151.646 642.214 151.685C642.155 151.723 642.105 151.772 642.066 151.83L639.969 154.903C639.914 154.982 639.883 155.075 639.877 155.172C639.872 155.268 639.893 155.364 639.938 155.45C639.983 155.535 640.051 155.607 640.133 155.656C640.216 155.706 640.311 155.733 640.407 155.733H640.411ZM647.232 156.277C647.157 156.158 647.037 156.074 646.9 156.043C646.763 156.012 646.619 156.037 646.499 156.112L644.714 157.238L644.702 157.245L643.352 158.094C643.233 158.169 643.148 158.289 643.116 158.426C643.084 158.564 643.109 158.709 643.184 158.829C643.259 158.949 643.379 159.034 643.517 159.065C643.655 159.097 643.799 159.072 643.919 158.997L647.064 157.013C647.124 156.976 647.175 156.927 647.216 156.87C647.256 156.813 647.285 156.748 647.301 156.68C647.316 156.612 647.318 156.541 647.306 156.472C647.294 156.403 647.268 156.337 647.23 156.277H647.232Z" fill="black"/>
<path d="M574.883 148.608C574.002 147.77 572.608 147.804 571.768 148.683L568.306 152.317C565.667 151.916 562.987 152.728 561.015 154.528L560.998 154.512C560.747 154.272 560.348 154.282 560.108 154.534C560.108 154.534 560.108 154.534 560.108 154.534L559.113 155.579C558.8 155.906 558.63 156.344 558.643 156.796C558.646 156.914 558.602 157.028 558.52 157.113L558.512 157.122C556.094 159.662 553.932 162.433 552.058 165.396L548.67 170.757C548.111 171.645 548.254 172.805 549.013 173.53L555.35 179.567C556.112 180.289 557.277 180.376 558.137 179.775L563.327 176.13C566.195 174.114 568.858 171.82 571.277 169.282L571.285 169.274C571.367 169.188 571.479 169.139 571.597 169.136C572.049 169.126 572.479 168.936 572.79 168.607L573.785 167.562C574.025 167.31 574.016 166.912 573.764 166.672C573.764 166.672 573.764 166.672 573.764 166.672L573.747 166.656C575.449 164.599 576.13 161.883 575.601 159.266L579.062 155.632C579.9 154.75 579.866 153.356 578.987 152.516L574.883 148.608ZM573.341 149.259C573.591 149.251 573.834 149.345 574.015 149.519L578.118 153.428C578.495 153.788 578.51 154.385 578.151 154.763L577.933 154.992L572.463 149.78L572.68 149.552C572.852 149.37 573.09 149.264 573.341 149.259ZM576.63 156.359L571.16 151.148L571.594 150.692L577.065 155.903L576.63 156.359ZM574.893 158.183L569.423 152.971L570.291 152.059L575.762 157.271L574.893 158.183ZM571.878 167.739C571.797 167.825 571.684 167.874 571.566 167.877C571.114 167.886 570.685 168.077 570.374 168.405L570.366 168.413C568.004 170.892 565.404 173.131 562.603 175.099L557.413 178.744C557.045 179.002 556.546 178.965 556.219 178.655L549.881 172.618C549.556 172.307 549.495 171.811 549.735 171.43L553.123 166.069C554.953 163.176 557.063 160.471 559.423 157.991L559.432 157.983C559.745 157.656 559.914 157.218 559.901 156.766C559.898 156.647 559.942 156.533 560.024 156.448L560.586 155.858L572.439 167.149L571.878 167.739ZM572.833 165.785L568.665 161.815L561.929 155.399C563.647 153.867 565.967 153.199 568.236 153.581L574.343 159.397C574.834 161.645 574.279 163.995 572.833 165.785Z" fill="black"/>
<path d="M565.988 154.518C565.302 154.755 564.649 155.076 564.041 155.472C563.75 155.662 563.668 156.052 563.858 156.343C564.048 156.635 564.438 156.717 564.729 156.527C565.251 156.186 565.812 155.912 566.4 155.708C566.728 155.594 566.902 155.236 566.789 154.907C566.675 154.578 566.317 154.404 565.988 154.518V154.518Z" fill="black"/>
<path d="M556.994 163.748C556.714 163.54 556.32 163.599 556.113 163.878C555.333 164.931 554.582 166.026 553.882 167.134C553.696 167.428 553.784 167.816 554.078 168.002C554.372 168.188 554.761 168.1 554.947 167.806C555.63 166.725 556.363 165.656 557.125 164.628C557.332 164.349 557.273 163.955 556.994 163.748Z" fill="black"/>
<path d="M558.982 161.288C558.715 161.065 558.318 161.1 558.095 161.366C557.958 161.529 557.822 161.693 557.687 161.858C557.467 162.127 557.506 162.524 557.775 162.744C558.045 162.964 558.441 162.925 558.662 162.656C558.793 162.495 558.926 162.335 559.059 162.175C559.283 161.909 559.248 161.512 558.982 161.288Z" fill="black"/>
<path d="M558.977 152.863C559.149 152.863 559.314 152.793 559.433 152.668L559.507 152.589C560.177 151.882 561.102 151.473 562.076 151.452C562.423 151.443 562.698 151.154 562.69 150.807C562.681 150.459 562.393 150.184 562.045 150.192C560.737 150.221 559.495 150.771 558.596 151.72L558.521 151.798C558.281 152.05 558.291 152.449 558.543 152.689C558.66 152.8 558.815 152.863 558.977 152.863L558.977 152.863Z" fill="black"/>
<path d="M561.3 148.614C561.291 148.267 561.003 147.993 560.655 148C559.348 148.028 558.106 148.579 557.206 149.528L557.131 149.606C556.892 149.858 556.901 150.257 557.153 150.497C557.405 150.736 557.803 150.727 558.043 150.475L558.118 150.397C558.788 149.69 559.712 149.28 560.686 149.259C561.034 149.251 561.309 148.962 561.3 148.614C561.3 148.614 561.3 148.614 561.3 148.614Z" fill="black"/>
<path d="M566.686 177.205C566.422 176.979 566.025 177.009 565.798 177.273L565.728 177.355C565.096 178.096 564.194 178.553 563.222 178.625C562.876 178.651 562.616 178.954 562.642 179.3C562.667 179.628 562.941 179.882 563.27 179.882C563.286 179.882 563.302 179.882 563.318 179.88C564.623 179.784 565.835 179.17 566.684 178.175L566.754 178.093C566.98 177.829 566.95 177.432 566.686 177.205Z" fill="black"/>
<path d="M564.144 181.418C564.169 181.746 564.442 182 564.771 182C564.787 182 564.803 181.999 564.82 181.998C566.124 181.902 567.336 181.288 568.185 180.293L568.255 180.211C568.485 179.95 568.459 179.552 568.198 179.323C567.937 179.093 567.539 179.119 567.31 179.38C567.306 179.383 567.303 179.387 567.3 179.391L567.229 179.473C566.597 180.214 565.695 180.671 564.724 180.743C564.377 180.769 564.117 181.071 564.144 181.418Z" fill="black"/>
<g clip-path="url(#clip7_0_1)">
<path d="M496 162.344C491.222 162.344 482.188 163.01 482.188 165.531C482.188 168.053 491.222 168.719 496 168.719C500.778 168.719 509.812 168.053 509.812 165.531C509.812 163.01 500.778 162.344 496 162.344ZM496 167.656C487.588 167.656 483.25 166.169 483.25 165.531C483.25 164.894 487.588 163.406 496 163.406C504.412 163.406 508.75 164.894 508.75 165.531C508.75 166.169 504.412 167.656 496 167.656Z" fill="black"/>
<path d="M496 160.219C488.016 160.219 479.531 162.078 479.531 165.531V176.156C479.531 179.609 488.016 181.469 496 181.469C503.984 181.469 512.469 179.609 512.469 176.156V165.531C512.469 162.081 503.984 160.219 496 160.219ZM480.594 176.156V167.509C481.235 168.032 481.951 168.454 482.719 168.762V178.223C481.352 177.575 480.594 176.852 480.594 176.156ZM508.219 169.169V178.665C507.523 178.919 506.813 179.135 506.094 179.312V169.778C506.851 169.597 507.563 169.394 508.219 169.169ZM505.031 179.556C504.365 179.698 503.657 179.824 502.906 179.933V170.371C503.638 170.265 504.349 170.146 505.031 170.009V179.556ZM501.844 180.073C501.163 180.154 500.455 180.221 499.719 180.275V170.713C500.437 170.659 501.147 170.594 501.844 170.512V180.073ZM498.656 180.338C497.968 180.374 497.259 180.395 496.531 180.401V170.838C497.239 170.831 497.95 170.809 498.656 170.773V180.338ZM495.469 180.401C494.742 180.394 494.033 180.373 493.344 180.338V170.774C494.05 170.811 494.761 170.833 495.469 170.84V180.401ZM492.281 180.273C491.546 180.22 490.838 180.153 490.156 180.071V170.509C490.853 170.59 491.563 170.657 492.281 170.709V180.273ZM489.094 179.932C488.343 179.822 487.635 179.696 486.969 179.555V170.01C487.651 170.147 488.362 170.268 489.094 170.372V179.932ZM485.906 179.312C485.187 179.135 484.477 178.919 483.781 178.665V169.169C484.437 169.394 485.149 169.597 485.906 169.778V179.312ZM509.281 178.223V168.762C510.049 168.454 510.765 168.032 511.406 167.509V176.156C511.406 176.852 510.648 177.575 509.281 178.223ZM496 169.781C486.921 169.781 480.594 167.542 480.594 165.531C480.594 163.521 486.921 161.281 496 161.281C505.079 161.281 511.406 163.521 511.406 165.531C511.406 167.542 505.079 169.781 496 169.781Z" fill="black"/>
<path d="M489.074 152.725L489.92 152.161L489.33 151.277L488.484 151.841C488.212 152.022 487.984 152.262 487.816 152.542C487.648 152.822 487.544 153.136 487.511 153.461C487.479 153.786 487.52 154.115 487.63 154.423C487.74 154.73 487.916 155.01 488.148 155.241L488.757 155.852C488.878 155.972 488.97 156.117 489.027 156.277C489.084 156.437 489.105 156.607 489.088 156.776C489.071 156.945 489.017 157.108 488.93 157.254C488.843 157.399 488.724 157.524 488.583 157.618L487.736 158.182L488.326 159.066L489.172 158.502C489.444 158.32 489.672 158.081 489.84 157.801C490.009 157.521 490.113 157.207 490.145 156.881C490.177 156.556 490.137 156.228 490.027 155.92C489.917 155.612 489.74 155.333 489.509 155.102L488.899 154.491C488.779 154.371 488.687 154.226 488.63 154.066C488.572 153.906 488.551 153.735 488.568 153.566C488.585 153.398 488.639 153.234 488.726 153.089C488.814 152.943 488.932 152.819 489.074 152.725Z" fill="black"/>
<path d="M495.98 150.069L496.826 149.504L496.236 148.62L495.391 149.185C495.119 149.366 494.89 149.605 494.722 149.885C494.554 150.166 494.45 150.48 494.418 150.805C494.385 151.13 494.426 151.459 494.536 151.766C494.646 152.074 494.823 152.354 495.054 152.585L495.664 153.196C495.784 153.316 495.876 153.461 495.933 153.621C495.99 153.78 496.011 153.951 495.994 154.12C495.978 154.289 495.924 154.452 495.836 154.598C495.749 154.743 495.63 154.867 495.489 154.961L494.643 155.526L495.232 156.41L496.078 155.845C496.35 155.664 496.578 155.425 496.747 155.145C496.915 154.864 497.019 154.55 497.051 154.225C497.083 153.9 497.043 153.572 496.933 153.264C496.823 152.956 496.646 152.677 496.415 152.445L495.805 151.835C495.685 151.715 495.593 151.569 495.536 151.41C495.479 151.25 495.458 151.079 495.474 150.91C495.491 150.741 495.545 150.578 495.632 150.433C495.72 150.287 495.839 150.163 495.98 150.069Z" fill="black"/>
<path d="M503.417 152.725L504.264 152.161L503.674 151.277L502.828 151.841C502.556 152.022 502.328 152.262 502.16 152.542C501.991 152.822 501.887 153.136 501.855 153.461C501.823 153.786 501.863 154.115 501.973 154.423C502.083 154.73 502.26 155.01 502.491 155.241L503.101 155.852C503.221 155.972 503.313 156.117 503.37 156.277C503.428 156.437 503.449 156.607 503.432 156.776C503.415 156.945 503.361 157.108 503.274 157.254C503.186 157.399 503.068 157.524 502.926 157.618L502.08 158.182L502.67 159.066L503.516 158.502C503.788 158.32 504.016 158.081 504.184 157.801C504.352 157.521 504.456 157.207 504.489 156.881C504.521 156.556 504.48 156.228 504.37 155.92C504.26 155.612 504.084 155.333 503.852 155.102L503.243 154.491C503.122 154.371 503.03 154.226 502.973 154.066C502.916 153.906 502.895 153.735 502.912 153.566C502.929 153.398 502.983 153.234 503.07 153.089C503.157 152.943 503.276 152.819 503.417 152.725Z" fill="black"/>
</g>
<path d="M427.934 178.979C429.144 178.979 430.125 177.997 430.125 176.787C430.125 175.577 429.144 174.596 427.934 174.596C426.723 174.596 425.742 175.577 425.742 176.787C425.742 177.997 426.723 178.979 427.934 178.979Z" fill="black"/>
<path d="M444.643 158.284C440.279 153.601 434.368 151.022 428 151.021C421.632 151.022 415.721 153.601 411.357 158.284C410.856 158.82 410.886 159.661 411.423 160.161C411.959 160.661 412.8 160.632 413.3 160.095C417.157 155.957 422.377 153.678 428 153.678C433.623 153.678 438.843 155.957 442.7 160.095C442.962 160.376 443.317 160.518 443.672 160.518C443.996 160.518 444.321 160.399 444.577 160.161C445.114 159.661 445.144 158.82 444.643 158.284Z" fill="black"/>
<path d="M439.767 163.769C436.54 160.518 432.361 158.728 428 158.728C423.637 158.728 419.458 160.518 416.233 163.769C415.716 164.289 415.72 165.13 416.24 165.647C416.761 166.164 417.602 166.16 418.118 165.64C420.841 162.895 424.351 161.384 428 161.384C431.648 161.384 435.157 162.895 437.881 165.64C438.141 165.901 438.482 166.032 438.824 166.032C439.162 166.032 439.501 165.904 439.76 165.647C440.28 165.13 440.283 164.289 439.767 163.769Z" fill="black"/>
<path d="M434.451 169.269C432.723 167.558 430.247 166.494 427.987 166.494C427.987 166.494 427.987 166.494 427.986 166.494H427.891C427.89 166.494 427.89 166.494 427.89 166.494C425.63 166.494 423.154 167.558 421.426 169.269C420.905 169.786 420.901 170.627 421.417 171.148C421.677 171.41 422.019 171.541 422.36 171.541C422.698 171.541 423.036 171.413 423.295 171.156C424.525 169.938 426.329 169.15 427.89 169.15C427.89 169.15 427.89 169.15 427.891 169.15H427.987C427.987 169.15 427.987 169.15 427.987 169.15C429.548 169.15 431.352 169.938 432.582 171.156C433.103 171.673 433.944 171.669 434.46 171.148C434.976 170.627 434.972 169.786 434.451 169.269Z" fill="black"/>
<path d="M913.917 160.75L904 169.25L894.083 160.75" stroke="#161117" stroke-width="1.5" stroke-linecap="round" stroke-linejoin="round"/>
<g clip-path="url(#clip8_0_1)">
<path d="M784.396 154.43C783.955 153.909 783.338 153.591 782.659 153.534L758.715 151.535C758.036 151.478 757.375 151.69 756.854 152.13C756.335 152.569 756.017 153.183 755.959 153.859L755.477 158.379H753.554C752.146 158.379 751 159.524 751 160.932V175.92C751 177.328 752.146 178.474 753.554 178.474H777.58C778.988 178.474 780.134 177.328 780.134 175.92V173.489L780.986 173.56C781.058 173.566 781.13 173.569 781.201 173.569C782.514 173.569 783.633 172.559 783.744 171.228L784.991 156.292C785.048 155.612 784.836 154.951 784.396 154.43ZM753.554 159.707H777.58C778.256 159.707 778.806 160.256 778.806 160.932V162.298H752.328V160.932C752.328 160.256 752.878 159.707 753.554 159.707ZM752.328 163.626H778.806V166.381H752.328V163.626ZM777.58 177.146H753.554C752.878 177.146 752.328 176.596 752.328 175.92V167.709H778.806V175.92C778.806 176.596 778.256 177.146 777.58 177.146ZM783.667 156.181L782.42 171.117C782.364 171.791 781.77 172.293 781.097 172.237L780.134 172.156V160.932C780.134 159.524 778.988 158.379 777.58 158.379H756.813L757.28 153.993C757.281 153.988 757.281 153.983 757.282 153.978C757.338 153.305 757.931 152.802 758.605 152.859L782.548 154.858C782.874 154.885 783.17 155.038 783.382 155.288C783.593 155.538 783.695 155.855 783.667 156.181Z" fill="#747474"/>
<path d="M776.027 169.684H769.636C769.269 169.684 768.972 169.981 768.972 170.348V174.517C768.972 174.884 769.269 175.181 769.636 175.181H776.027C776.394 175.181 776.691 174.884 776.691 174.517V170.348C776.691 169.981 776.394 169.684 776.027 169.684ZM775.363 173.853H770.3V171.012H775.363V173.853Z" fill="#747474"/>
</g>
<path fill-rule="evenodd" clip-rule="evenodd" d="M826.436 162.244V159.333C826.436 154.052 830.717 149.771 835.999 149.771C841.28 149.771 845.561 154.052 845.561 159.333V162.244C847.14 162.362 848.169 162.66 848.921 163.412C850.165 164.656 850.165 166.66 850.165 170.667C850.165 174.674 850.165 176.677 848.921 177.922C847.676 179.167 845.672 179.167 841.665 179.167H830.332C826.325 179.167 824.322 179.167 823.077 177.922C821.832 176.677 821.832 174.674 821.832 170.667C821.832 166.66 821.832 164.656 823.077 163.412C823.829 162.66 824.857 162.362 826.436 162.244ZM828.561 159.333C828.561 155.226 831.891 151.896 835.999 151.896C840.106 151.896 843.436 155.226 843.436 159.333V162.172C842.894 162.167 842.305 162.167 841.665 162.167H830.332C829.692 162.167 829.104 162.167 828.561 162.172V159.333Z" fill="#161117"/>
<path d="M1099.33 91H1076.67M1076.67 91L1085.17 82.5M1076.67 91L1085.17 99.5" stroke="#1C274C" stroke-width="1.5" stroke-linecap="round" stroke-linejoin="round"/>
<rect x="40" y="4" width="39.7969" height="30" rx="3" fill="#222222"/>
<rect x="40.5" y="4.5" width="38.7969" height="29" rx="2.5" stroke="white" stroke-opacity="0.0980392"/>
<path d="M47.9375 14V22H46.9688V14H47.9375ZM52.1924 22.125C51.6299 22.125 51.1455 21.9922 50.7393 21.7266C50.333 21.4609 50.0205 21.0951 49.8018 20.6289C49.583 20.1628 49.4736 19.6302 49.4736 19.0312C49.4736 18.4219 49.5856 17.8841 49.8096 17.418C50.0361 16.9492 50.3512 16.5833 50.7549 16.3203C51.1611 16.0547 51.6351 15.9219 52.1768 15.9219C52.5986 15.9219 52.9788 16 53.3174 16.1562C53.6559 16.3125 53.9333 16.5312 54.1494 16.8125C54.3656 17.0937 54.4997 17.4219 54.5518 17.7969H53.6299C53.5596 17.5234 53.4033 17.2812 53.1611 17.0703C52.9215 16.8568 52.5986 16.75 52.1924 16.75C51.833 16.75 51.5179 16.8437 51.2471 17.0312C50.9788 17.2161 50.7692 17.4779 50.6182 17.8164C50.4697 18.1523 50.3955 18.5469 50.3955 19C50.3955 19.4635 50.4684 19.8672 50.6143 20.2109C50.7627 20.5547 50.971 20.8216 51.2393 21.0117C51.5101 21.2018 51.8278 21.2969 52.1924 21.2969C52.432 21.2969 52.6494 21.2552 52.8447 21.1719C53.04 21.0885 53.2054 20.9688 53.3408 20.8125C53.4762 20.6562 53.5726 20.4687 53.6299 20.25H54.5518C54.4997 20.6042 54.3708 20.9232 54.165 21.207C53.9619 21.4883 53.6924 21.7122 53.3564 21.8789C53.0231 22.043 52.6351 22.125 52.1924 22.125ZM58.3369 22.125C57.7952 22.125 57.32 21.9961 56.9111 21.7383C56.5049 21.4805 56.1872 21.1198 55.958 20.6562C55.7314 20.1927 55.6182 19.651 55.6182 19.0312C55.6182 18.4062 55.7314 17.8607 55.958 17.3945C56.1872 16.9284 56.5049 16.5664 56.9111 16.3086C57.32 16.0508 57.7952 15.9219 58.3369 15.9219C58.8786 15.9219 59.3525 16.0508 59.7588 16.3086C60.1676 16.5664 60.4854 16.9284 60.7119 17.3945C60.9411 17.8607 61.0557 18.4062 61.0557 19.0312C61.0557 19.651 60.9411 20.1927 60.7119 20.6562C60.4854 21.1198 60.1676 21.4805 59.7588 21.7383C59.3525 21.9961 58.8786 22.125 58.3369 22.125ZM58.3369 21.2969C58.7484 21.2969 59.0869 21.1914 59.3525 20.9805C59.6182 20.7695 59.8148 20.4922 59.9424 20.1484C60.07 19.8047 60.1338 19.4323 60.1338 19.0312C60.1338 18.6302 60.07 18.2565 59.9424 17.9102C59.8148 17.5638 59.6182 17.2839 59.3525 17.0703C59.0869 16.8568 58.7484 16.75 58.3369 16.75C57.9255 16.75 57.5869 16.8568 57.3213 17.0703C57.0557 17.2839 56.859 17.5638 56.7314 17.9102C56.6038 18.2565 56.54 18.6302 56.54 19.0312C56.54 19.4323 56.6038 19.8047 56.7314 20.1484C56.859 20.4922 57.0557 20.7695 57.3213 20.9805C57.5869 21.1914 57.9255 21.2969 58.3369 21.2969ZM63.3848 18.3906V22H62.4629V16H63.3535V16.9375H63.4316C63.5723 16.6328 63.7858 16.388 64.0723 16.2031C64.3587 16.0156 64.7285 15.9219 65.1816 15.9219C65.5879 15.9219 65.9434 16.0052 66.248 16.1719C66.5527 16.3359 66.7897 16.5859 66.959 16.9219C67.1283 17.2552 67.2129 17.6771 67.2129 18.1875V22H66.291V18.25C66.291 17.7786 66.1686 17.4115 65.9238 17.1484C65.679 16.8828 65.3431 16.75 64.916 16.75C64.6217 16.75 64.3587 16.8138 64.127 16.9414C63.8978 17.069 63.7168 17.2552 63.584 17.5C63.4512 17.7448 63.3848 18.0417 63.3848 18.3906ZM73.1475 17.3437L72.3193 17.5781C72.2673 17.4401 72.1904 17.306 72.0889 17.1758C71.9899 17.043 71.8545 16.9336 71.6826 16.8477C71.5107 16.7617 71.2907 16.7187 71.0225 16.7187C70.6553 16.7187 70.3493 16.8034 70.1045 16.9727C69.8623 17.1393 69.7412 17.3516 69.7412 17.6094C69.7412 17.8385 69.8245 18.0195 69.9912 18.1523C70.1579 18.2852 70.4183 18.3958 70.7725 18.4844L71.6631 18.7031C72.1995 18.8333 72.5993 19.0326 72.8623 19.3008C73.1253 19.5664 73.2568 19.9089 73.2568 20.3281C73.2568 20.6719 73.1579 20.9792 72.96 21.25C72.7646 21.5208 72.4912 21.7344 72.1396 21.8906C71.7881 22.0469 71.3792 22.125 70.9131 22.125C70.3011 22.125 69.7946 21.9922 69.3936 21.7266C68.9925 21.4609 68.7386 21.0729 68.6318 20.5625L69.5068 20.3437C69.5902 20.6667 69.7477 20.9089 69.9795 21.0703C70.2139 21.2318 70.5199 21.3125 70.8975 21.3125C71.3271 21.3125 71.6683 21.2214 71.9209 21.0391C72.1761 20.8542 72.3037 20.6328 72.3037 20.375C72.3037 20.1667 72.2308 19.9922 72.085 19.8516C71.9391 19.7083 71.7152 19.6016 71.4131 19.5312L70.4131 19.2969C69.8636 19.1667 69.46 18.9648 69.2021 18.6914C68.9469 18.4154 68.8193 18.0703 68.8193 17.6562C68.8193 17.3177 68.9144 17.0182 69.1045 16.7578C69.2972 16.4974 69.5589 16.293 69.8896 16.1445C70.223 15.9961 70.6006 15.9219 71.0225 15.9219C71.6162 15.9219 72.0824 16.0521 72.4209 16.3125C72.762 16.5729 73.0042 16.9167 73.1475 17.3437Z" fill="white"/>
<defs>
<clipPath id="clip0_0_1">
<rect width="34" height="34" fill="white" transform="translate(139 74)"/>
</clipPath>
<clipPath id="clip1_0_1">
<rect width="35" height="35" fill="white" transform="translate(686 73)"/>
</clipPath>
<clipPath id="clip2_0_1">
<rect width="35" height="35" fill="white" transform="translate(755 73)"/>
</clipPath>
<clipPath id="clip3_0_1">
<rect width="34" height="34" fill="white" transform="translate(275 148)"/>
</clipPath>
<clipPath id="clip4_0_1">
<rect width="34" height="34" fill="white" transform="translate(207 148)"/>
</clipPath>
<clipPath id="clip5_0_1">
<rect width="34" height="34" fill="white" transform="translate(139 148)"/>
</clipPath>
<clipPath id="clip6_0_1">
<rect width="34" height="34" fill="white" transform="translate(71 148)"/>
</clipPath>
<clipPath id="clip7_0_1">
<rect width="34" height="34" fill="white" transform="translate(479 148)"/>
</clipPath>
<clipPath id="clip8_0_1">
<rect width="34" height="34" fill="white" transform="translate(751 148)"/>
</clipPath>
</defs>
</svg>
